# xmcd
#
# Track frame offsets:
#	150
#	12519
#	26161
#	37922
#	51112
#	62985
#	75464
#	85278
#	97915
#	111203
#
# Disc length: 1672
#
# Revision: 2
# Processed by: cddbd v1.5.1PL0 Copyright (c) Steve Scherf et al.
# Submitted via: EasyCDDAExtractor 5.1.0
# Normalized: r1:DSETVAR1
#
DISCID=7606860a
DTITLE=Various Artist - Country Love Disc 1 of 3
DYEAR=2003
DGENRE=Country
TTITLE0=Charlie Rich - Behind Closed Doors
TTITLE1=Johnny Paycheck - Someone to Give My Love To
TTITLE2=Don Gibson - I Can't Stop Loving You
TTITLE3=Lacy J. Dalton - Dream Baby ((How Long Must I Dream)
TTITLE4=Jack Greene - All The Time
TTITLE5=Wanda Jackson - Crazy
TTITLE6=Ray Price - Make the World Go Away
TTITLE7=Jerry Wallace - In The Misty Moonlight
TTITLE8=Johnny Carver - Afternoon Delight
TTITLE9=Deborah Allen - I Will Always Love You
EXTD=
EXTT0=
EXTT1=
EXTT2=
EXTT3=
EXTT4=
EXTT5=
EXTT6=
EXTT7=
EXTT8=
EXTT9=
PLAYORDER=
